<svg width="34" height="34" viewBox="0 0 34 34" fill="none" xmlns="http://www.w3.org/2000/svg">
<path d="M29.1595 0C29.8307 0 30.4567 0.129376 31.0376 0.388128C31.6185 0.64688 32.1283 0.996195 32.5672 1.43607C33.0061 1.87595 33.3546 2.38699 33.6128 2.96918C33.8709 3.55137 34 4.17884 34 4.8516V29.1484C34 29.8212 33.8709 30.4486 33.6128 31.0308C33.3546 31.613 33.0061 32.124 32.5672 32.5639C32.1283 33.0038 31.6185 33.3531 31.0376 33.6119C30.4567 33.8706 29.8307 34 29.1595 34H12.1982C11.527 34 10.9009 33.8706 10.32 33.6119C9.73918 33.3531 9.22931 33.0038 8.79043 32.5639C8.35156 32.124 8.00304 31.613 7.74488 31.0308C7.48671 30.4486 7.35763 29.8212 7.35763 29.1484V21.8516H12.1982V29.1484H29.1595V4.8516H12.1982V12.1484H7.35763V4.8516C7.35763 4.17884 7.48671 3.55137 7.74488 2.96918C8.00304 2.38699 8.35156 1.87595 8.79043 1.43607C9.22931 0.996195 9.73918 0.64688 10.32 0.388128C10.9009 0.129376 11.527 0 12.1982 0H29.1595ZM16.9613 20.8813C16.9613 20.3897 16.8386 20.0274 16.5934 19.7945C16.3481 19.5616 16.0448 19.4452 15.6834 19.4452H1.35535C0.993926 19.4452 0.677677 19.3482 0.406606 19.1541C0.135535 18.96 0 18.6301 0 18.1644V16.1849C0 15.4345 0.116173 14.9623 0.348519 14.7683C0.580866 14.5742 1.03265 14.4772 1.70387 14.4772H2.90433C3.52392 14.4772 4.25968 14.4836 5.11162 14.4966C5.96355 14.5095 6.89294 14.5224 7.89977 14.5354C8.90661 14.5483 9.88117 14.5613 10.8235 14.5742C11.7658 14.5871 12.6371 14.5936 13.4374 14.5936H15.3736C15.9415 14.5936 16.3481 14.3866 16.5934 13.9726C16.8386 13.5586 16.9613 13.1058 16.9613 12.6142V10.7511C16.9613 10.2336 17.071 9.9102 17.2904 9.78082C17.5099 9.65145 17.839 9.76788 18.2779 10.1301C18.7168 10.4924 19.3106 10.9064 20.0592 11.3721C20.8079 11.8379 21.5888 12.3166 22.4021 12.8082C23.2153 13.2998 24.0091 13.785 24.7836 14.2637C25.5581 14.7424 26.1777 15.1758 26.6424 15.5639C27.0038 15.8486 27.1845 16.2367 27.1845 16.7283C27.1845 17.2199 27.0425 17.5822 26.7585 17.8151C26.3455 18.1773 25.784 18.5849 25.074 19.0377C24.3641 19.4905 23.6154 19.9562 22.828 20.4349C22.0406 20.9136 21.2726 21.3858 20.5239 21.8516C19.7752 22.3174 19.1686 22.7443 18.7039 23.1324C18.1101 23.624 17.6712 23.8763 17.3872 23.8893C17.1033 23.9022 16.9613 23.5205 16.9613 22.7443V20.8813Z" fill="url(#paint0_linear_8113_415)"/>
<defs>
<linearGradient id="paint0_linear_8113_415" x1="34" y1="17.3617" x2="4.54658" y2="33.1029" gradientUnits="userSpaceOnUse">
<stop stop-color="#DC8914"/>
<stop offset="0.550413" stop-color="#F2C014"/>
</linearGradient>
</defs>
</svg>
