<svg width="34" height="34" viewBox="0 0 34 34" fill="none" xmlns="http://www.w3.org/2000/svg">
<g clip-path="url(#clip0_8121_419)">
<path d="M17.0018 31.45C9.03218 31.45 2.55026 24.9688 2.55026 17C2.55026 9.03125 9.03218 2.55 17.0018 2.55C20.1744 2.55 23.1004 3.58594 25.4837 5.32768L23.9846 6.82277C23.6582 7.14911 23.8746 7.70313 24.3338 7.72969L29.4267 7.99911C29.7417 8.01429 30.0035 7.75625 29.9846 7.4413L29.7151 2.34888C29.6923 1.88973 29.1345 1.67723 28.8081 1.99978L27.3091 3.49866C24.4514 1.30536 20.8841 0 17.0018 0C7.61284 0 0 7.61205 0 17C0 26.3879 7.61284 34 17.0018 34C17.6317 34 18.2541 33.9583 18.8689 33.8937L18.3983 31.3817C17.9391 31.4234 17.4723 31.45 17.0018 31.45ZM25.8214 28.4219L27.2028 30.5772C28.2616 29.7804 29.2369 28.8734 30.0832 27.8565L27.9846 26.3652C27.3356 27.1241 26.6108 27.8109 25.8214 28.4219ZM33.939 15.725L31.4077 16.1083C31.4267 16.4042 31.4532 16.6964 31.4532 17C31.4532 17.7134 31.3849 18.4078 31.2825 19.0908L33.7682 19.6828C33.9086 18.8063 33.9997 17.9145 33.9997 17C34.0035 16.5712 33.9693 16.15 33.939 15.725ZM33.5633 13.2054C33.2635 11.8962 32.8119 10.6516 32.2312 9.47522L30.0263 10.7768C30.4551 11.6685 30.7929 12.6058 31.032 13.5848L33.5633 13.2054ZM20.903 30.8998L21.3736 33.4118C22.6677 33.0665 23.9087 32.5922 25.0662 31.9699L23.681 29.8031C22.8006 30.2623 21.8708 30.6266 20.903 30.8998ZM29.4608 24.2857L31.5481 25.7694C32.2274 24.6424 32.7929 23.4433 33.199 22.1683L30.7018 21.5725C30.3792 22.525 29.9618 23.4319 29.4608 24.2857Z" fill="url(#paint0_linear_8121_419)"/>
<path d="M6.62988 17C6.62988 22.9135 11.3884 27.71 17.2549 27.71C23.1214 27.71 27.8799 22.9135 27.8799 17C27.8799 11.0866 23.1214 6.29004 17.2549 6.29004C11.3884 6.29004 6.62988 11.0866 6.62988 17ZM23.6299 17.5355V18.6065C23.6299 18.9011 23.3908 19.142 23.0986 19.142H15.6611C15.3689 19.142 15.1299 18.9011 15.1299 18.6065V11.1095C15.1299 10.815 15.3689 10.574 15.6611 10.574H16.7236C17.0158 10.574 17.2549 10.815 17.2549 11.1095V17H23.0986C23.3946 17 23.6299 17.241 23.6299 17.5355Z" fill="url(#paint1_linear_8121_419)"/>
</g>
<defs>
<linearGradient id="paint0_linear_8121_419" x1="34" y1="17.3617" x2="4.54658" y2="33.1029" gradientUnits="userSpaceOnUse">
<stop stop-color="#DC8914"/>
<stop offset="0.550413" stop-color="#F2C014"/>
</linearGradient>
<linearGradient id="paint1_linear_8121_419" x1="27.8799" y1="17.2279" x2="9.40661" y2="27.0225" gradientUnits="userSpaceOnUse">
<stop stop-color="#DC8914"/>
<stop offset="0.550413" stop-color="#F2C014"/>
</linearGradient>
<clipPath id="clip0_8121_419">
<rect width="34" height="34" fill="white"/>
</clipPath>
</defs>
</svg>
