<svg width="34" height="34" viewBox="0 0 34 34" fill="none" xmlns="http://www.w3.org/2000/svg">
<path d="M27.361 13.8833C26.6527 11.05 27.361 9.06667 27.361 9.06667C24.811 9.35 23.536 12.8917 23.536 12.8917C22.686 2.125 13.0527 0 13.0527 0C14.8943 2.125 12.7693 8.21667 10.6443 10.3417C8.23602 12.75 7.10268 16.8583 7.10268 16.8583C7.38602 16.0083 5.82768 14.1667 5.82768 14.1667C-0.40565 30.7417 13.6193 34 13.6193 34C10.2193 30.3167 13.6193 26.2083 13.6193 26.2083C15.036 24.5083 17.0193 19.8333 17.0193 19.8333C25.8027 28.475 21.6943 33.4333 21.6943 33.4333C35.436 28.6167 27.361 13.8833 27.361 13.8833Z" fill="url(#paint0_linear_8121_422)"/>
<defs>
<linearGradient id="paint0_linear_8121_422" x1="29.7182" y1="17.3617" x2="5.25849" y2="27.1611" gradientUnits="userSpaceOnUse">
<stop stop-color="#DC8914"/>
<stop offset="0.550413" stop-color="#F2C014"/>
</linearGradient>
</defs>
</svg>
