<svg width="33" height="34" viewBox="0 0 33 34" fill="none" xmlns="http://www.w3.org/2000/svg">
<path d="M16.6043 0C17.0627 0 17.4974 0.223505 17.7912 0.610799L24.6208 9.62264L30.4146 5.37605C30.6644 5.18955 30.9678 5.0897 31.279 5.09155C31.5902 5.09339 31.8923 5.19684 32.1399 5.38629C32.6595 5.77529 32.9125 6.4714 32.7784 7.14874L28.9186 26.6636C28.7607 27.4484 28.1341 28.0029 27.4108 27.9995H5.79945C5.07608 28.0029 4.44779 27.4467 4.29157 26.6636L0.430166 7.14874C0.297717 6.4714 0.549031 5.77188 1.06864 5.38629C1.31621 5.19684 1.61836 5.09339 1.92955 5.09155C2.24074 5.0897 2.5441 5.18955 2.79388 5.37605L8.58768 9.62264L15.4173 0.610799C15.5548 0.423787 15.7335 0.271313 15.9394 0.165339C16.1453 0.0593646 16.3729 0.00277192 16.6043 0ZM3.99781 32.3331C3.99781 31.4118 4.7042 30.6679 5.57361 30.6679H27.6366C27.9177 30.6704 28.1928 30.7491 28.4331 30.8957C28.6734 31.0422 28.8699 31.2512 29.0019 31.5005C29.282 32.0123 29.282 32.6556 29.0019 33.1674C28.8697 33.4166 28.6732 33.6255 28.433 33.772C28.1927 33.9185 27.9176 33.9973 27.6366 34H5.57361C4.7042 34 3.99781 33.2544 3.99781 32.3331ZM14.2405 20.6665C14.2405 21.5878 14.9469 22.3334 15.8164 22.3334H17.3922C18.2633 22.3334 18.968 21.5878 18.968 20.6665C18.968 19.7469 18.2633 18.9996 17.3922 18.9996H15.8164C14.9469 18.9996 14.2405 19.7469 14.2405 20.6665Z" fill="url(#paint0_linear_8113_418)"/>
<defs>
<linearGradient id="paint0_linear_8113_418" x1="32.8139" y1="17.3617" x2="4.15179" y2="31.9675" gradientUnits="userSpaceOnUse">
<stop stop-color="#DC8914"/>
<stop offset="0.550413" stop-color="#F2C014"/>
</linearGradient>
</defs>
</svg>
