<svg width="15" height="15" viewBox="0 0 15 15" fill="none" xmlns="http://www.w3.org/2000/svg">
<path d="M2.64433 14.9627C2.4263 14.9616 2.21076 14.918 2.01075 14.8347C1.81073 14.7514 1.63039 14.63 1.48063 14.4778C1.31625 14.3272 1.18543 14.146 1.0961 13.9454C1.00677 13.7448 0.960787 13.5288 0.960938 13.3107V1.07346C0.960938 0.828521 1.06228 0.593609 1.24268 0.420407C1.42308 0.247206 1.66776 0.149902 1.92288 0.149902L13.2257 0.149902C13.4808 0.149902 13.7255 0.247206 13.9059 0.420407C14.0863 0.593609 14.1876 0.828521 14.1876 1.07346V14.9629L2.64433 14.9627ZM1.92288 11.9653V13.2144C1.91558 13.4055 1.98737 13.5916 2.12256 13.732C2.25775 13.8725 2.44534 13.9558 2.64433 13.9639H13.2257V11.2163H2.64433C2.4454 11.2242 2.25785 11.3075 2.12266 11.4479C1.98748 11.5882 1.91565 11.7742 1.92288 11.9653ZM8.67354 7.55526C8.67379 7.7345 8.7481 7.90632 8.88016 8.03302C9.01221 8.15972 9.19123 8.23095 9.37792 8.23107H12.0233C12.2099 8.23089 12.3889 8.1596 12.5209 8.03286C12.653 7.90612 12.7272 7.73427 12.7274 7.55502C12.7272 7.37576 12.653 7.20389 12.521 7.07711C12.389 6.95033 12.21 6.87899 12.0233 6.87875H9.37792C9.19116 6.87893 9.01211 6.95024 8.88006 7.07703C8.748 7.20381 8.67373 7.37572 8.67354 7.55502V7.55526ZM8.67354 4.55368C8.67379 4.73292 8.7481 4.90475 8.88016 5.03145C9.01221 5.15815 9.19123 5.22937 9.37792 5.22949H12.0233C12.2099 5.22931 12.3889 5.15803 12.5209 5.03128C12.653 4.90454 12.7272 4.73269 12.7274 4.55345C12.7272 4.37418 12.653 4.20231 12.521 4.07553C12.389 3.94875 12.21 3.87741 12.0233 3.87717H9.37792C9.19112 3.87735 9.01204 3.94869 8.87997 4.07553C8.74791 4.20237 8.67367 4.37433 8.67354 4.55368Z" fill="url(#paint0_linear_2933_139)"/>
<defs>
<linearGradient id="paint0_linear_2933_139" x1="7.57428" y1="0.149902" x2="7.57428" y2="14.9629" gradientUnits="userSpaceOnUse">
<stop stop-color="#EDB738"/>
<stop offset="0.53125" stop-color="#FADE7F"/>
<stop offset="1" stop-color="#7CD16C"/>
</linearGradient>
</defs>
</svg>
